<svg id="Group_481" data-name="Group 481" xmlns="http://www.w3.org/2000/svg" width="102.843" height="21" viewBox="0 0 102.843 21">
  <g id="Group_478" data-name="Group 478" transform="translate(0 0)">
    <g id="Group_477" data-name="Group 477">
      <path id="Path_31" data-name="Path 31" d="M312.858,298.307a13.991,13.991,0,0,1-4.432.707,7.817,7.817,0,0,1-5.385-1.7,5.9,5.9,0,0,1-1.946-4.738,6.174,6.174,0,0,1,2.154-4.929,8.3,8.3,0,0,1,5.529-1.778,9.218,9.218,0,0,1,3.644.593l-.58,2.007a8.083,8.083,0,0,0-3.086-.536,5.079,5.079,0,0,0-3.479,1.147,4.247,4.247,0,0,0-1.366,3.362,4.392,4.392,0,0,0,1.264,3.344,4.627,4.627,0,0,0,3.334,1.2,5.1,5.1,0,0,0,1.739-.209v-3.114h-2.3v-1.949h4.909Z" transform="translate(-301.095 -285.81)" fill="#f2f2f2"/>
      <path id="Path_32" data-name="Path 32" d="M321.025,298.868h-2.755a13.717,13.717,0,0,1-.932-3.037,3.272,3.272,0,0,0-.828-1.721,2.308,2.308,0,0,0-1.574-.477h-1.16v5.235h-2.651V286.162a24.377,24.377,0,0,1,3.873-.268,7.029,7.029,0,0,1,4.287,1.033,3.282,3.282,0,0,1,.456,4.661,3.769,3.769,0,0,1-1.72,1.147v.057a3.3,3.3,0,0,1,1.9,2.485q.56,2.043.6,2.2A7.707,7.707,0,0,0,321.025,298.868Zm-3.19-9.115q0-1.985-2.567-1.986a8.314,8.314,0,0,0-1.492.1v3.955h1.387a3.083,3.083,0,0,0,1.957-.564A1.813,1.813,0,0,0,317.835,289.753Z" transform="translate(-296.836 -285.799)" fill="#f2f2f2"/>
      <path id="Path_33" data-name="Path 33" d="M330.928,298.839h-2.879l-1.181-3.534h-4.224l-1.1,3.534h-2.775l4.349-12.878h3.418Zm-4.473-5.406-1.016-3.039q-.1-.306-.682-2.465h-.063q-.186.84-.643,2.465l-.973,3.039Z" transform="translate(-293.59 -285.77)" fill="#f2f2f2"/>
      <path id="Path_34" data-name="Path 34" d="M337.924,285.961l-4.534,7.472v5.406h-2.673v-5.331l-4.328-7.548h3.064l1.554,3.248q.724,1.491,1.16,2.541h.041q.434-1.09,1.138-2.56l1.574-3.23Z" transform="translate(-290.355 -285.77)" fill="#f2f2f2"/>
      <path id="Path_35" data-name="Path 35" d="M343.755,295.19a3.376,3.376,0,0,1-1.325,2.751,6.229,6.229,0,0,1-4,1.147,7.725,7.725,0,0,1-3.728-.784l.56-2.063a7.085,7.085,0,0,0,3.334.8,3.064,3.064,0,0,0,1.792-.449,1.415,1.415,0,0,0,.631-1.214,1.454,1.454,0,0,0-.549-1.165,6.3,6.3,0,0,0-1.853-.917q-3.708-1.261-3.707-3.744a3.245,3.245,0,0,1,1.356-2.675,5.74,5.74,0,0,1,3.614-1.051,7.87,7.87,0,0,1,3.312.631l-.621,1.987a6.406,6.406,0,0,0-2.754-.593,2.707,2.707,0,0,0-1.678.459,1.233,1.233,0,0,0-.517,1.013,1.36,1.36,0,0,0,.621,1.127,8.827,8.827,0,0,0,1.967.917Q343.754,292.649,343.755,295.19Z" transform="translate(-286.825 -285.827)" fill="#f2f2f2"/>
      <path id="Path_36" data-name="Path 36" d="M352.784,286.381l-.58,1.969a6.789,6.789,0,0,0-2.61-.479,4.721,4.721,0,0,0-3.333,1.165,5.125,5.125,0,0,0-.094,6.774,4.647,4.647,0,0,0,3.408,1.214,7.021,7.021,0,0,0,2.65-.44l.436,1.949a8.754,8.754,0,0,1-3.5.554,7.23,7.23,0,0,1-5.167-1.767,6.164,6.164,0,0,1-1.875-4.711,6.323,6.323,0,0,1,2.134-5,9.091,9.091,0,0,1,8.532-1.224Z" transform="translate(-283.677 -285.827)" fill="#f2f2f2"/>
      <path id="Path_37" data-name="Path 37" d="M362.575,298.839H359.7l-1.18-3.534h-4.225l-1.1,3.534h-2.775l4.349-12.878h3.416Zm-4.473-5.406-1.014-3.039q-.1-.306-.684-2.465h-.063q-.186.84-.641,2.465l-.974,3.039Z" transform="translate(-280.152 -285.77)" fill="#f2f2f2"/>
      <path id="Path_38" data-name="Path 38" d="M368.532,298.839h-8.243V285.961h2.673v10.8h5.57Z" transform="translate(-275.961 -285.77)" fill="#f2f2f2"/>
      <path id="Path_39" data-name="Path 39" d="M375.786,298.839H367.4V285.961h8.076v2.044h-5.4v3.153h5.116v2.026h-5.116V296.8h5.717Z" transform="translate(-272.943 -285.77)" fill="#f2f2f2"/>
    </g>
  </g>
  <g id="Group_480" data-name="Group 480" transform="translate(14.289 17.171)">
    <g id="Group_479" data-name="Group 479">
      <path id="Path_40" data-name="Path 40" d="M314.635,301.637h-.83l-.342-1.02h-1.219l-.316,1.02h-.8l1.256-3.718h.986Zm-1.292-1.561-.292-.878c-.02-.058-.087-.295-.2-.711h-.017q-.055.244-.185.711l-.282.878Z" transform="translate(-311.125 -297.864)" fill="#f2f2f2"/>
      <path id="Path_41" data-name="Path 41" d="M318.211,299.7a1.813,1.813,0,0,1-.628,1.49,2.763,2.763,0,0,1-1.794.5,8.05,8.05,0,0,1-.974-.05v-3.657a7.823,7.823,0,0,1,1.154-.077,2.681,2.681,0,0,1,1.608.4A1.633,1.633,0,0,1,318.211,299.7Zm-.813.023a1.218,1.218,0,0,0-.35-.942,1.423,1.423,0,0,0-1-.322,2.772,2.772,0,0,0-.46.033v2.61a2.637,2.637,0,0,0,.37.016,1.467,1.467,0,0,0,1.061-.35A1.361,1.361,0,0,0,317.4,299.721Z" transform="translate(-309.558 -297.872)" fill="#f2f2f2"/>
      <path id="Path_42" data-name="Path 42" d="M321.707,297.919l-1.358,3.718h-.885l-1.279-3.718h.849l.52,1.661q.263.848.376,1.346h.013q.126-.551.383-1.336l.556-1.671Z" transform="translate(-308.127 -297.864)" fill="#f2f2f2"/>
      <path id="Path_43" data-name="Path 43" d="M324.221,301.637H321.8v-3.718h2.332v.591H322.57v.909h1.477V300H322.57v1.043h1.651Z" transform="translate(-306.593 -297.864)" fill="#f2f2f2"/>
      <path id="Path_44" data-name="Path 44" d="M327.641,301.645h-.8a3.994,3.994,0,0,1-.269-.878.941.941,0,0,0-.239-.5.662.662,0,0,0-.454-.138h-.335v1.512h-.765v-3.668a7.042,7.042,0,0,1,1.118-.077,2.02,2.02,0,0,1,1.236.3.947.947,0,0,1,.132,1.346,1.108,1.108,0,0,1-.5.331v.017a.954.954,0,0,1,.55.717c.107.393.165.605.172.634A2.251,2.251,0,0,0,327.641,301.645Zm-.92-2.631q0-.575-.742-.574a2.377,2.377,0,0,0-.43.029v1.141h.4a.893.893,0,0,0,.565-.163A.527.527,0,0,0,326.72,299.014Z" transform="translate(-305.326 -297.872)" fill="#f2f2f2"/>
      <path id="Path_45" data-name="Path 45" d="M330.738,298.52H329.62v3.117h-.772V298.52h-1.105v-.6h3Z" transform="translate(-304.07 -297.864)" fill="#f2f2f2"/>
      <path id="Path_46" data-name="Path 46" d="M331.787,301.637h-.771v-3.718h.771Z" transform="translate(-302.679 -297.864)" fill="#f2f2f2"/>
      <path id="Path_47" data-name="Path 47" d="M335.467,300.584a.974.974,0,0,1-.383.793,1.8,1.8,0,0,1-1.154.332,2.228,2.228,0,0,1-1.076-.227l.161-.6a2.05,2.05,0,0,0,.963.232.878.878,0,0,0,.517-.131.407.407,0,0,0,.182-.349.421.421,0,0,0-.158-.338,1.778,1.778,0,0,0-.536-.264q-1.071-.365-1.07-1.081a.935.935,0,0,1,.392-.774,1.665,1.665,0,0,1,1.043-.3,2.282,2.282,0,0,1,.957.182l-.179.574a1.852,1.852,0,0,0-.795-.171.78.78,0,0,0-.484.133.354.354,0,0,0-.15.292.393.393,0,0,0,.18.325,2.471,2.471,0,0,0,.567.265Q335.468,299.85,335.467,300.584Z" transform="translate(-301.899 -297.88)" fill="#f2f2f2"/>
      <path id="Path_48" data-name="Path 48" d="M336.748,301.637h-.771v-3.718h.771Z" transform="translate(-300.573 -297.864)" fill="#f2f2f2"/>
      <path id="Path_49" data-name="Path 49" d="M341.105,301.637h-.8l-.982-1.577a12.48,12.48,0,0,1-.7-1.286l-.017.006q.041.662.041,1.6v1.258h-.711v-3.718h.879l.969,1.539a10.791,10.791,0,0,1,.662,1.248l.013-.006a15.565,15.565,0,0,1-.066-1.556v-1.225h.711Z" transform="translate(-299.741 -297.864)" fill="#f2f2f2"/>
      <path id="Path_50" data-name="Path 50" d="M344.833,301.484a4.063,4.063,0,0,1-1.279.2A2.253,2.253,0,0,1,342,301.2a1.7,1.7,0,0,1-.563-1.368,1.786,1.786,0,0,1,.621-1.423,2.4,2.4,0,0,1,1.6-.513,2.663,2.663,0,0,1,1.053.171l-.168.58a2.315,2.315,0,0,0-.89-.155,1.471,1.471,0,0,0-1,.331,1.226,1.226,0,0,0-.395.972,1.27,1.27,0,0,0,.365.966,1.34,1.34,0,0,0,.963.348,1.437,1.437,0,0,0,.5-.061v-.9h-.664v-.563h1.417Z" transform="translate(-298.255 -297.875)" fill="#f2f2f2"/>
      <path id="Path_51" data-name="Path 51" d="M350.286,301.637h-.832l-.34-1.02h-1.219l-.318,1.02h-.8l1.255-3.718h.987Zm-1.292-1.561-.293-.878q-.03-.088-.2-.711h-.018q-.053.244-.185.711l-.281.878Z" transform="translate(-295.988 -297.864)" fill="#f2f2f2"/>
      <path id="Path_52" data-name="Path 52" d="M353.63,301.484a4.057,4.057,0,0,1-1.279.2,2.253,2.253,0,0,1-1.554-.491,1.7,1.7,0,0,1-.563-1.368,1.787,1.787,0,0,1,.622-1.423,2.4,2.4,0,0,1,1.6-.513,2.66,2.66,0,0,1,1.051.171l-.167.58a2.328,2.328,0,0,0-.892-.155,1.472,1.472,0,0,0-1,.331,1.226,1.226,0,0,0-.395.972,1.27,1.27,0,0,0,.365.966,1.343,1.343,0,0,0,.963.348,1.452,1.452,0,0,0,.5-.061v-.9h-.665v-.563h1.418Z" transform="translate(-294.52 -297.875)" fill="#f2f2f2"/>
      <path id="Path_53" data-name="Path 53" d="M356.391,301.637h-2.42v-3.718H356.3v.591h-1.56v.909h1.477V300h-1.477v1.043h1.65Z" transform="translate(-292.933 -297.864)" fill="#f2f2f2"/>
      <path id="Path_54" data-name="Path 54" d="M360.122,301.637h-.8l-.982-1.577a12.167,12.167,0,0,1-.7-1.286l-.018.006q.041.662.041,1.6v1.258h-.711v-3.718h.879l.969,1.539a10.807,10.807,0,0,1,.664,1.248l.011-.006q-.066-.645-.065-1.556v-1.225h.711Z" transform="translate(-291.666 -297.864)" fill="#f2f2f2"/>
      <path id="Path_55" data-name="Path 55" d="M363.534,298.041l-.168.567a1.979,1.979,0,0,0-.754-.137,1.362,1.362,0,0,0-.962.336,1.479,1.479,0,0,0-.027,1.956,1.337,1.337,0,0,0,.983.349,2.009,2.009,0,0,0,.765-.127l.125.564a2.544,2.544,0,0,1-1.01.16A2.091,2.091,0,0,1,361,301.2a1.783,1.783,0,0,1-.541-1.36,1.832,1.832,0,0,1,.615-1.446,2.623,2.623,0,0,1,2.465-.352Z" transform="translate(-290.18 -297.88)" fill="#f2f2f2"/>
      <path id="Path_56" data-name="Path 56" d="M366.965,297.919l-1.309,2.157v1.561h-.771V300.1l-1.249-2.18h.885l.447.937q.209.432.336.734h.011q.126-.314.329-.738l.454-.933Z" transform="translate(-288.829 -297.864)" fill="#f2f2f2"/>
    </g>
  </g>
</svg>
